<svg version="1.1" xmlns="http://www.w3.org/2000/svg" viewBox="0 0 1311.639143769292 939.3580809166185" width="1311.639143769292" height="939.3580809166185" filter="invert(93%) hue-rotate(180deg)">
  <!-- svg-source:excalidraw -->
  
  <defs>
    <style class="style-fonts">
      @font-face {
        font-family: "Virgil";
        src: url("https://excalidraw.com/Virgil.woff2");
      }
      @font-face {
        font-family: "Cascadia";
        src: url("https://excalidraw.com/Cascadia.woff2");
      }
      @font-face {
        font-family: "Assistant";
        src: url("https://excalidraw.com/Assistant-Regular.woff2");
      }
    </style>
    
  </defs>
  <g stroke-linecap="round"><g transform="translate(391.39330171847905 365.71125551979327) rotate(0 0 281.82341269841265)"><path d="M0 0 C0 93.94, 0 469.71, 0 563.65 M0 0 C0 93.94, 0 469.71, 0 563.65" stroke="#1e1e1e" stroke-width="2" fill="none"></path></g></g><mask></mask><g transform="translate(127.1075874327646 285.643795202333) rotate(0 43.847984313964844 22.5)"><text x="0" y="31.536" font-family="Virgil, Segoe UI Emoji" font-size="36px" fill="#1e1e1e" text-anchor="start" style="white-space: pre;" direction="ltr" dominant-baseline="alphabetic">Past</text></g><g stroke-linecap="round"><g transform="translate(845.393301718479 365.71125551979327) rotate(0 0 281.82341269841265)"><path d="M0 0 C0 93.94, 0 469.71, 0 563.65 M0 0 C0 93.94, 0 469.71, 0 563.65" stroke="#1e1e1e" stroke-width="2" fill="none"></path></g></g><mask></mask><g transform="translate(581.1075874327646 285.643795202333) rotate(0 65.71797943115234 22.5)"><text x="0" y="31.536" font-family="Virgil, Segoe UI Emoji" font-size="36px" fill="#1e1e1e" text-anchor="start" style="white-space: pre;" direction="ltr" dominant-baseline="alphabetic">Current</text></g><g stroke-linecap="round"><g transform="translate(1301.639143769292 365.71125551979327) rotate(0 0 281.82341269841265)"><path d="M0 0 C0 93.94, 0 469.71, 0 563.65 M0 0 C0 93.94, 0 469.71, 0 563.65" stroke="#1e1e1e" stroke-width="2" fill="none"></path></g></g><mask></mask><g transform="translate(1010.6526959214289 291.643795202333) rotate(0 59.23797607421875 22.5)"><text x="0" y="31.536" font-family="Virgil, Segoe UI Emoji" font-size="36px" fill="#1e1e1e" text-anchor="start" style="white-space: pre;" direction="ltr" dominant-baseline="alphabetic">Before</text></g><g transform="translate(61.66937983698335 386.650103410486) rotate(0 114.84989166259766 25)"><text x="114.84989166259766" y="17.52" font-family="Virgil, Segoe UI Emoji" font-size="20px" fill="#1e1e1e" text-anchor="middle" style="white-space: pre;" direction="ltr" dominant-baseline="alphabetic">Rendering and </text><text x="114.84989166259766" y="42.519999999999996" font-family="Virgil, Segoe UI Emoji" font-size="20px" fill="#1e1e1e" text-anchor="middle" style="white-space: pre;" direction="ltr" dominant-baseline="alphabetic">interactivity separated</text></g><g transform="translate(10 510.77552209595757) rotate(0 161.38987731933594 12.5)"><text x="161.38987731933594" y="17.52" font-family="Virgil, Segoe UI Emoji" font-size="20px" fill="#1e1e1e" text-anchor="middle" style="white-space: pre;" direction="ltr" dominant-baseline="alphabetic">Rendering done at the server by:</text></g><g transform="translate(13.043622012469086 632.2482012022117) rotate(0 59.80454434249066 11.456819977776718)"><text x="59.804544342490665" y="16.057878880851845" font-family="Virgil, Segoe UI Emoji" font-size="18.330911964442745px" fill="#1e1e1e" text-anchor="middle" style="white-space: pre;" direction="ltr" dominant-baseline="alphabetic">Interactivity:</text></g><g transform="translate(18.922561787873974 762.9039130125295) rotate(0 77.34992980957031 12.5)"><text x="77.34992980957031" y="17.52" font-family="Virgil, Segoe UI Emoji" font-size="20px" fill="#1e1e1e" text-anchor="middle" style="white-space: pre;" direction="ltr" dominant-baseline="alphabetic">Very performant</text></g><g transform="translate(24.0166304054153 806.7174739459056) rotate(0 89.98992156982422 50)"><text x="0" y="17.52" font-family="Virgil, Segoe UI Emoji" font-size="20px" fill="#1e1e1e" text-anchor="start" style="white-space: pre;" direction="ltr" dominant-baseline="alphabetic">Slow development, </text><text x="0" y="42.519999999999996" font-family="Virgil, Segoe UI Emoji" font-size="20px" fill="#1e1e1e" text-anchor="start" style="white-space: pre;" direction="ltr" dominant-baseline="alphabetic">error prone,</text><text x="0" y="67.52" font-family="Virgil, Segoe UI Emoji" font-size="20px" fill="#1e1e1e" text-anchor="start" style="white-space: pre;" direction="ltr" dominant-baseline="alphabetic">duplicated logic</text><text x="0" y="92.52" font-family="Virgil, Segoe UI Emoji" font-size="20px" fill="#1e1e1e" text-anchor="start" style="white-space: pre;" direction="ltr" dominant-baseline="alphabetic"></text></g><g transform="translate(446.694217118462 722.1472510791077) rotate(0 100.29991149902344 37.5)"><text x="0" y="17.52" font-family="Virgil, Segoe UI Emoji" font-size="20px" fill="#1e1e1e" text-anchor="start" style="white-space: pre;" direction="ltr" dominant-baseline="alphabetic">Unified model, fast </text><text x="0" y="42.519999999999996" font-family="Virgil, Segoe UI Emoji" font-size="20px" fill="#1e1e1e" text-anchor="start" style="white-space: pre;" direction="ltr" dominant-baseline="alphabetic">development, scales </text><text x="0" y="67.52" font-family="Virgil, Segoe UI Emoji" font-size="20px" fill="#1e1e1e" text-anchor="start" style="white-space: pre;" direction="ltr" dominant-baseline="alphabetic">in complesity</text></g><g transform="translate(448.78057716290834 818.1198131236454) rotate(0 131.55990600585938 37.5)"><text x="0" y="17.52" font-family="Virgil, Segoe UI Emoji" font-size="20px" fill="#1e1e1e" text-anchor="start" style="white-space: pre;" direction="ltr" dominant-baseline="alphabetic">Uses hydration, to enable </text><text x="0" y="42.519999999999996" font-family="Virgil, Segoe UI Emoji" font-size="20px" fill="#1e1e1e" text-anchor="start" style="white-space: pre;" direction="ltr" dominant-baseline="alphabetic">interactivity. </text><text x="0" y="67.52" font-family="Virgil, Segoe UI Emoji" font-size="20px" fill="#1e1e1e" text-anchor="start" style="white-space: pre;" direction="ltr" dominant-baseline="alphabetic">App runs twice</text></g><g transform="translate(102.68819009839558 579.9660641367163) rotate(0 57.15996551513672 12.5)"><text x="0" y="17.52" font-family="Virgil, Segoe UI Emoji" font-size="20px" fill="#1e1e1e" text-anchor="start" style="white-space: pre;" direction="ltr" dominant-baseline="alphabetic">PHP, RAILS</text></g><g transform="translate(456.621689833883 589.9089678923915) rotate(0 162.43994140625 12.5)"><text x="0" y="17.52" font-family="Virgil, Segoe UI Emoji" font-size="20px" fill="#1e1e1e" text-anchor="start" style="white-space: pre;" direction="ltr" dominant-baseline="alphabetic">ANGULAR, VUE, SVELTE, REACT</text></g><g transform="translate(453.12765950343726 391.9139158337819) rotate(0 153.32986450195312 25)"><text x="153.32986450195312" y="17.52" font-family="Virgil, Segoe UI Emoji" font-size="20px" fill="#1e1e1e" text-anchor="middle" style="white-space: pre;" direction="ltr" dominant-baseline="alphabetic">Render and interactivity united</text><text x="153.32986450195312" y="42.519999999999996" font-family="Virgil, Segoe UI Emoji" font-size="20px" fill="#1e1e1e" text-anchor="middle" style="white-space: pre;" direction="ltr" dominant-baseline="alphabetic">into a single framework</text></g><g transform="translate(476.17252056227346 500.22885607760924) rotate(0 140.0098876953125 25)"><text x="140.0098876953125" y="17.52" font-family="Virgil, Segoe UI Emoji" font-size="20px" fill="#1e1e1e" text-anchor="middle" style="white-space: pre;" direction="ltr" dominant-baseline="alphabetic">App runs twice in server and</text><text x="140.0098876953125" y="42.519999999999996" font-family="Virgil, Segoe UI Emoji" font-size="20px" fill="#1e1e1e" text-anchor="middle" style="white-space: pre;" direction="ltr" dominant-baseline="alphabetic">client using the same tech:</text></g><g transform="translate(393.21447371623753 76.97715167260151) rotate(0 254.37591552734375 22.5)"><text x="254.37591552734375" y="31.536" font-family="Virgil, Segoe UI Emoji" font-size="36px" fill="#1e1e1e" text-anchor="middle" style="white-space: pre;" direction="ltr" dominant-baseline="alphabetic">Future is about performance</text></g><g stroke-linecap="round" transform="translate(323.5702856914678 10) rotate(0 335.65618461890216 85.0329001034552)"><path d="M32 0 C264.53 0, 497.06 0, 639.31 0 M32 0 C214.84 0, 397.69 0, 639.31 0 M639.31 0 C660.65 0, 671.31 10.67, 671.31 32 M639.31 0 C660.65 0, 671.31 10.67, 671.31 32 M671.31 32 C671.31 57.07, 671.31 82.13, 671.31 138.07 M671.31 32 C671.31 65.69, 671.31 99.39, 671.31 138.07 M671.31 138.07 C671.31 159.4, 660.65 170.07, 639.31 170.07 M671.31 138.07 C671.31 159.4, 660.65 170.07, 639.31 170.07 M639.31 170.07 C403.97 170.07, 168.63 170.07, 32 170.07 M639.31 170.07 C450.12 170.07, 260.93 170.07, 32 170.07 M32 170.07 C10.67 170.07, 0 159.4, 0 138.07 M32 170.07 C10.67 170.07, 0 159.4, 0 138.07 M0 138.07 C0 110.91, 0 83.76, 0 32 M0 138.07 C0 111.6, 0 85.13, 0 32 M0 32 C0 10.67, 10.67 0, 32 0 M0 32 C0 10.67, 10.67 0, 32 0" stroke="#1e1e1e" stroke-width="2" fill="none"></path></g><g transform="translate(102.68819009839558 680.215377942895) rotate(0 39.209983825683594 12.5)"><text x="0" y="17.52" font-family="Virgil, Segoe UI Emoji" font-size="20px" fill="#1e1e1e" text-anchor="start" style="white-space: pre;" direction="ltr" dominant-baseline="alphabetic">JQUERY</text></g><g transform="translate(914.4524905114556 585.6747483487102) rotate(0 161.0999298095703 12.5)"><text x="161.0999298095703" y="17.52" font-family="Virgil, Segoe UI Emoji" font-size="20px" fill="#1e1e1e" text-anchor="middle" style="white-space: pre;" direction="ltr" dominant-baseline="alphabetic">GOOGLE WIZ, QWIK, MARKO V6</text></g><g transform="translate(906.1110589573652 396.65811655196245) rotate(0 153.32986450195312 25)"><text x="153.32986450195312" y="17.52" font-family="Virgil, Segoe UI Emoji" font-size="20px" fill="#1e1e1e" text-anchor="middle" style="white-space: pre;" direction="ltr" dominant-baseline="alphabetic">Render and interactivity united</text><text x="153.32986450195312" y="42.519999999999996" font-family="Virgil, Segoe UI Emoji" font-size="20px" fill="#1e1e1e" text-anchor="middle" style="white-space: pre;" direction="ltr" dominant-baseline="alphabetic">into a single framework</text></g><g transform="translate(931.4703096171147 489.6162216951639) rotate(0 129.10989379882812 37.5)"><text x="129.10989379882812" y="17.52" font-family="Virgil, Segoe UI Emoji" font-size="20px" fill="#1e1e1e" text-anchor="middle" style="white-space: pre;" direction="ltr" dominant-baseline="alphabetic">App runs ONCE, client only</text><text x="129.10989379882812" y="42.519999999999996" font-family="Virgil, Segoe UI Emoji" font-size="20px" fill="#1e1e1e" text-anchor="middle" style="white-space: pre;" direction="ltr" dominant-baseline="alphabetic">executes minimal bites of </text><text x="129.10989379882812" y="67.52" font-family="Virgil, Segoe UI Emoji" font-size="20px" fill="#1e1e1e" text-anchor="middle" style="white-space: pre;" direction="ltr" dominant-baseline="alphabetic">interactivity</text></g><g transform="translate(922.5600519337175 709.8419400712648) rotate(0 100.29991149902344 37.5)"><text x="0" y="17.52" font-family="Virgil, Segoe UI Emoji" font-size="20px" fill="#1e1e1e" text-anchor="start" style="white-space: pre;" direction="ltr" dominant-baseline="alphabetic">Unified model, fast </text><text x="0" y="42.519999999999996" font-family="Virgil, Segoe UI Emoji" font-size="20px" fill="#1e1e1e" text-anchor="start" style="white-space: pre;" direction="ltr" dominant-baseline="alphabetic">development, scales </text><text x="0" y="67.52" font-family="Virgil, Segoe UI Emoji" font-size="20px" fill="#1e1e1e" text-anchor="start" style="white-space: pre;" direction="ltr" dominant-baseline="alphabetic">in complesity</text></g><g transform="translate(920.466737990494 821.0437146606655) rotate(0 93.20991516113281 37.5)"><text x="0" y="17.52" font-family="Virgil, Segoe UI Emoji" font-size="20px" fill="#1e1e1e" text-anchor="start" style="white-space: pre;" direction="ltr" dominant-baseline="alphabetic">Uses resumability,</text><text x="0" y="42.519999999999996" font-family="Virgil, Segoe UI Emoji" font-size="20px" fill="#1e1e1e" text-anchor="start" style="white-space: pre;" direction="ltr" dominant-baseline="alphabetic">performance scales</text><text x="0" y="67.52" font-family="Virgil, Segoe UI Emoji" font-size="20px" fill="#1e1e1e" text-anchor="start" style="white-space: pre;" direction="ltr" dominant-baseline="alphabetic">well.</text></g></svg>